<svg transform="scale(1)" id="vDbutrSqci" data-name="0753_Comment 1" xmlns="http://www.w3.org/2000/svg" viewBox="0 0 500 500" class="pbimage_pbimage__wrapper__image__0LEis false"><title>Comment 1</title><defs><style> .cls-1{fill:#68e1fd;} .cls-1, .cls-2, .cls-3{stroke-width:0px;} .cls-2{fill:#fff;} .cls-3{fill:#231f20;}
 .cls-3{fill:#231F20;}
 .cls-2{fill:#FFFFFF;}
 .cls-1{fill:#68E1FD;}</style></defs><g id="Screen"><g><rect class="cls-2" x="233.01" y="108.87" width="207.24" height="184.88" rx="12.41" ry="12.41"></rect><path class="cls-3" d="M427.84,294.5h-182.42c-7.26,0-13.16-5.9-13.16-13.16V121.29c0-7.26,5.9-13.16,13.16-13.16h182.42c7.26,0,13.16,5.9,13.16,13.16v160.05c0,7.26-5.9,13.16-13.16,13.16ZM245.42,109.62c-6.43,0-11.66,5.23-11.66,11.66v160.05c0,6.43,5.23,11.66,11.66,11.66h182.42c6.43,0,11.66-5.23,11.66-11.66V121.29c0-6.43-5.23-11.66-11.66-11.66h-182.42Z"></path></g><g><g><circle class="cls-1" cx="253.34" cy="127.7" r="4.8"></circle><path class="cls-3" d="M253.34,133.26c-3.06,0-5.55-2.49-5.55-5.55s2.49-5.55,5.55-5.55,5.55,2.49,5.55,5.55-2.49,5.55-5.55,5.55ZM253.34,123.65c-2.24,0-4.05,1.82-4.05,4.05s1.82,4.05,4.05,4.05,4.05-1.82,4.05-4.05-1.82-4.05-4.05-4.05Z"></path></g><g><circle class="cls-2" cx="270.28" cy="127.7" r="4.8"></circle><path class="cls-3" d="M270.28,133.26c-3.06,0-5.55-2.49-5.55-5.55s2.49-5.55,5.55-5.55,5.55,2.49,5.55,5.55-2.49,5.55-5.55,5.55ZM270.28,123.65c-2.24,0-4.05,1.82-4.05,4.05s1.82,4.05,4.05,4.05,4.05-1.82,4.05-4.05-1.82-4.05-4.05-4.05Z"></path></g><g><circle class="cls-3" cx="287.23" cy="127.7" r="4.8"></circle><path class="cls-3" d="M287.23,133.26c-3.06,0-5.55-2.49-5.55-5.55s2.49-5.55,5.55-5.55,5.55,2.49,5.55,5.55-2.49,5.55-5.55,5.55ZM287.23,123.65c-2.24,0-4.05,1.82-4.05,4.05s1.82,4.05,4.05,4.05,4.05-1.82,4.05-4.05-1.82-4.05-4.05-4.05Z"></path></g></g><g><path class="cls-2" d="M298.28,243.4c0,5.82-2.14,11.14-5.69,15.21-4.24,4.89-10.52,7.98-17.51,7.98s-13.33-3.13-17.56-8.07c-3.51-4.06-5.63-9.35-5.63-15.12,0-12.81,10.38-23.19,23.19-23.19s23.2,10.38,23.2,23.19Z"></path><path class="cls-3" d="M275.08,267.34c-6.98,0-13.59-3.04-18.13-8.33-3.74-4.34-5.81-9.88-5.81-15.61,0-13.2,10.74-23.94,23.94-23.94s23.95,10.74,23.95,23.94c0,5.78-2.09,11.35-5.88,15.7-4.54,5.24-11.13,8.24-18.08,8.24ZM275.08,220.96c-12.37,0-22.44,10.07-22.44,22.44,0,5.37,1.93,10.57,5.44,14.63,4.25,4.96,10.45,7.81,17,7.81s12.69-2.81,16.94-7.72c3.55-4.07,5.51-9.3,5.51-14.72,0-12.37-10.07-22.44-22.45-22.44Z"></path></g><g><g><rect class="cls-2" x="314.16" y="158.61" width="101.93" height="7.8" rx="3.9" ry="3.9"></rect><path class="cls-3" d="M412.19,167.16h-94.13c-2.56,0-4.65-2.09-4.65-4.65s2.09-4.65,4.65-4.65h94.13c2.56,0,4.65,2.09,4.65,4.65s-2.09,4.65-4.65,4.65ZM318.06,159.36c-1.74,0-3.15,1.41-3.15,3.15s1.41,3.15,3.15,3.15h94.13c1.74,0,3.15-1.41,3.15-3.15s-1.41-3.15-3.15-3.15h-94.13Z"></path></g><g><rect class="cls-2" x="314.16" y="176.76" width="55.05" height="7.8" rx="3.9" ry="3.9"></rect><path class="cls-3" d="M365.3,185.31h-47.25c-2.56,0-4.65-2.09-4.65-4.65s2.09-4.65,4.65-4.65h47.25c2.56,0,4.65,2.09,4.65,4.65s-2.09,4.65-4.65,4.65ZM318.06,177.51c-1.74,0-3.15,1.41-3.15,3.15s1.41,3.15,3.15,3.15h47.25c1.74,0,3.15-1.41,3.15-3.15s-1.41-3.15-3.15-3.15h-47.25Z"></path></g></g><g><g><rect class="cls-2" x="314.16" y="230.43" width="101.93" height="7.8" rx="3.9" ry="3.9"></rect><path class="cls-3" d="M412.19,238.98h-94.13c-2.56,0-4.65-2.09-4.65-4.65s2.09-4.65,4.65-4.65h94.13c2.56,0,4.65,2.09,4.65,4.65s-2.09,4.65-4.65,4.65ZM318.06,231.18c-1.74,0-3.15,1.41-3.15,3.15s1.41,3.15,3.15,3.15h94.13c1.74,0,3.15-1.41,3.15-3.15s-1.41-3.15-3.15-3.15h-94.13Z"></path></g><g><rect class="cls-2" x="314.16" y="248.57" width="55.05" height="7.8" rx="3.9" ry="3.9"></rect><path class="cls-3" d="M365.3,257.12h-47.25c-2.56,0-4.65-2.09-4.65-4.65s2.09-4.65,4.65-4.65h47.25c2.56,0,4.65,2.09,4.65,4.65s-2.09,4.65-4.65,4.65ZM318.06,249.32c-1.74,0-3.15,1.41-3.15,3.15s1.41,3.15,3.15,3.15h47.25c1.74,0,3.15-1.41,3.15-3.15s-1.41-3.15-3.15-3.15h-47.25Z"></path></g></g><g><g><path class="cls-1" d="M292.59,258.6c-4.24,4.89-10.52,7.98-17.51,7.98s-13.33-3.13-17.56-8.07c.03-1.2.51-9.97,5.83-12.75,2.66-1.39,5.39-1.96,7.55-2.18.19-.02.37-.04.55-.05.95-.07,1.76-.09,2.38-.06.69.01,1.13.05,1.23.06.1-.01.56-.05,1.31-.06.62-.02,1.42-.01,2.36.07l.42.03c2.16.22,4.92.8,7.62,2.2,5.45,2.85,5.82,12.02,5.84,12.83Z"></path><path class="cls-3" d="M275.08,267.34c-6.98,0-13.59-3.04-18.13-8.33-.12-.14-.19-.32-.18-.51.03-1.05.44-10.37,6.23-13.39,2.32-1.21,4.95-1.97,7.81-2.27.24-.03.41-.05.59-.06,1.08-.09,1.93-.08,2.45-.06.6,0,1.02.04,1.2.06.19-.02.64-.05,1.3-.06.75-.03,1.58,0,2.43.08l.41.03c2.92.3,5.57,1.07,7.91,2.28,5.8,3.03,6.22,12.42,6.25,13.48,0,.19-.06.37-.18.51-4.54,5.24-11.13,8.24-18.08,8.24ZM258.28,258.25c4.25,4.82,10.35,7.58,16.8,7.58s12.5-2.73,16.75-7.5c-.09-1.63-.74-9.45-5.43-11.9-2.17-1.12-4.64-1.83-7.35-2.11l-.4-.03c-.79-.07-1.57-.1-2.27-.07-.72.01-1.17.05-1.26.06-.05,0-.11,0-.16,0-.09,0-.5-.05-1.16-.06-.49-.02-1.27-.02-2.31.06-.16,0-.31.03-.47.04-2.75.29-5.19.99-7.34,2.11-4.67,2.43-5.33,10.19-5.41,11.81Z"></path></g><g><path class="cls-2" d="M277.78,248.26c-1.2,1.85-2.69,1.76-2.69,1.76,0,0-1.5.09-2.7-1.76-1.19-1.83-.92-5.3-.92-5.3l3.62.79,3.61-.79s.28,3.47-.92,5.3Z"></path><path class="cls-3" d="M275.11,250.77s-.05,0-.06,0c.01,0-1.86.09-3.29-2.1-1.31-2.02-1.05-5.62-1.04-5.77.02-.22.13-.41.3-.54.17-.13.4-.18.61-.13l3.46.76,3.45-.76c.21-.05.43,0,.61.13.17.13.28.33.3.54.01.15.29,3.75-1.04,5.77h0c-1.3,1.99-2.96,2.1-3.3,2.1ZM272.2,243.88c0,1.18.17,2.95.82,3.97.93,1.43,2,1.41,2.04,1.42.1.01,1.16,0,2.09-1.42,0,0,0,0,0,0,.66-1.02.82-2.79.82-3.97l-2.73.6c-.11.02-.22.02-.32,0l-2.74-.6Z"></path></g><g><g><path class="cls-3" d="M282.4,236.73s2.86-10.78-5.03-8.47c-7.06-3.86-12.99-1.23-10.35,7.26,1.85,5.96,15.38,1.21,15.38,1.21Z"></path><path class="cls-3" d="M272.94,239.27c-1.58,0-3.09-.22-4.28-.82-1.18-.6-1.97-1.51-2.35-2.7-1.65-5.31.1-7.74,1.29-8.72,2.22-1.82,5.9-1.66,9.87.43,2.06-.54,3.65-.28,4.74.78,2.54,2.48.99,8.43.93,8.68-.06.24-.24.43-.48.52-.28.1-5.29,1.83-9.71,1.83ZM271.49,227.28c-1.18,0-2.2.3-2.94.91-1.55,1.27-1.84,3.8-.81,7.11.25.81.77,1.4,1.59,1.81,3.48,1.75,10.71-.4,12.44-.96.39-1.73.85-5.41-.62-6.83-.72-.7-1.92-.81-3.57-.33-.19.06-.4.03-.57-.06-1.99-1.09-3.92-1.64-5.52-1.64ZM282.4,236.73h0,0Z"></path></g><g><path class="cls-2" d="M282.4,234.44s-.42,7.78-4.21,9.82c-.68.37-1.88,1.3-3.11,1.28-1.45-.02-2.95-1.05-3.7-1.56-3.78-2.59-3.78-9.54-3.78-9.54,1.2-1.04,2.33-1.15,3.36-.75,2.63,1.01,5.45,1.01,8.08,0,1.03-.4,2.16-.29,3.36.75Z"></path><path class="cls-3" d="M275.11,246.29h-.03c-1.67-.02-3.31-1.15-4.1-1.69-4.08-2.79-4.12-9.86-4.12-10.16,0-.22.09-.42.26-.57,1.29-1.12,2.72-1.43,4.12-.89,2.46.94,5.07.94,7.54,0,1.41-.54,2.83-.23,4.12.89.17.15.27.38.26.61-.02.33-.49,8.23-4.6,10.44-.13.07-.28.16-.44.26-.72.44-1.81,1.11-3,1.11ZM268.36,234.79c.06,1.39.5,6.54,3.45,8.57.68.47,2.07,1.42,3.28,1.43h.02c.76,0,1.6-.51,2.21-.89.19-.12.37-.22.52-.31,2.92-1.57,3.64-7.29,3.78-8.82-.77-.57-1.51-.7-2.31-.39-2.82,1.08-5.8,1.08-8.62,0-.8-.31-1.55-.18-2.33.4Z"></path></g></g></g><g><g><path class="cls-2" d="M298.28,175.27c0,4.86-1.5,9.38-4.07,13.11-4.18,6.09-11.19,10.08-19.13,10.08-6.84,0-12.99-2.96-17.23-7.68-3.7-4.11-5.96-9.55-5.96-15.51,0-12.81,10.38-23.2,23.19-23.2s23.2,10.39,23.2,23.2Z"></path><path class="cls-3" d="M275.08,199.21c-6.78,0-13.26-2.89-17.79-7.93-3.97-4.41-6.15-10.1-6.15-16.01,0-13.21,10.74-23.95,23.94-23.95s23.95,10.74,23.95,23.95c0,4.86-1.45,9.54-4.2,13.53-4.47,6.52-11.86,10.41-19.75,10.41ZM275.08,152.82c-12.37,0-22.44,10.07-22.44,22.45,0,5.54,2.05,10.87,5.76,15,4.25,4.73,10.32,7.44,16.67,7.44,7.4,0,14.32-3.65,18.51-9.76,2.58-3.74,3.94-8.13,3.94-12.68,0-12.38-10.07-22.45-22.45-22.45Z"></path></g><g><path class="cls-1" d="M294.21,188.38c-4.18,6.09-11.19,10.08-19.13,10.08-6.84,0-12.99-2.96-17.23-7.68,2.05-5.68,6.85-14.65,17.05-15.77,9.27-1.01,15.72,7.03,19.31,13.37Z"></path><path class="cls-3" d="M275.08,199.21c-6.78,0-13.26-2.89-17.79-7.93-.18-.21-.24-.5-.15-.76,2.01-5.57,6.97-15.09,17.67-16.26,9.55-1.04,16.17,6.9,20.04,13.75.14.25.13.56-.03.79-4.47,6.52-11.86,10.41-19.75,10.41ZM258.71,190.6c4.23,4.52,10.17,7.1,16.37,7.1,7.24,0,14.03-3.49,18.24-9.37-3.68-6.36-9.8-13.53-18.34-12.59-9.63,1.06-14.29,9.57-16.27,14.86Z"></path></g><g><path class="cls-2" d="M267.27,170.88c3.71,1.44,2.89,5.98,2.89,5.98,0,0-.21,2.89,3.71,4.33,2.63.97,5.78-4.74,5.78-4.74,0,0,6.39-11.55,2.68-17.12-1.85-2.78-9.75-3.83-11.96.41-2.48,4.74-4.95,10.42-3.09,11.14Z"></path><path class="cls-3" d="M274.49,182.05c-.29,0-.59-.05-.88-.16-4.4-1.62-4.21-4.95-4.2-5.09.04-.24.67-4.03-2.41-5.23-.45-.18-.78-.52-.96-1-.22-.6-.91-2.42,3.67-11.18,1-1.91,3.13-3.08,5.87-3.23,3.1-.17,6.21.99,7.38,2.75,3.92,5.88-2.38,17.41-2.65,17.9-.32.58-2.97,5.24-5.81,5.24ZM276.14,157.65c-.17,0-.33,0-.5.01-1.29.07-3.6.48-4.62,2.43-3.96,7.58-3.75,9.54-3.59,9.96.04.11.08.12.1.13h0c3.39,1.32,3.68,5.03,3.35,6.81,0,0-.07,2.28,3.23,3.49,1.52.56,3.93-2.72,4.86-4.4.06-.11,6.13-11.22,2.71-16.34-.81-1.22-3.19-2.1-5.56-2.1Z"></path></g><g><path class="cls-2" d="M267.27,170.88s4.95,1.44,7.63,1.86,4.33-2.68,4.33-2.68c0,0,2.1.65,2.89-.62,2.68-4.33-1.03-4.33-1.03-4.33"></path><path class="cls-3" d="M275.4,173.53c-.2,0-.4-.02-.62-.05-2.7-.42-7.52-1.82-7.73-1.88-.4-.12-.63-.53-.51-.93s.53-.62.93-.51c.05.01,4.93,1.44,7.54,1.84,2.11.33,3.54-2.27,3.55-2.29.17-.32.54-.47.88-.36.4.12,1.65.33,2.03-.3.75-1.21,1.03-2.18.76-2.66-.27-.5-1.15-.52-1.16-.52-.41,0-.75-.34-.74-.75,0-.41.33-.75.75-.75.65,0,1.9.27,2.46,1.29.56,1.01.3,2.42-.8,4.19-.71,1.15-2.14,1.25-3.17,1.07-.6.88-2.05,2.62-4.18,2.62Z"></path></g><g><path class="cls-3" d="M272.04,157.85s2.37-3.88,5.53-2.37,4.09,3.13,4.09,3.13c0,0-6.15-2.68-9.62-.76Z"></path><path class="cls-3" d="M281.67,159.36c-.1,0-.2-.02-.3-.06-.06-.02-5.85-2.51-8.96-.79-.3.17-.67.11-.9-.14-.24-.25-.28-.62-.1-.91.94-1.54,3.52-4.08,6.5-2.66,3.34,1.6,4.37,3.36,4.42,3.43.16.28.12.63-.09.87-.15.16-.35.25-.56.25ZM275.2,156.41c1.13,0,2.26.17,3.28.4-.36-.22-.77-.44-1.22-.65-1.08-.52-2.06-.23-2.83.28.26-.02.52-.03.78-.03Z"></path></g></g></g><g id="Character"><g id="Character-2" data-name="Character"><path class="cls-1" d="M212.05,400.09l-21.6.6-34.48.97-61.98,1.72s-17-58.83-24.09-104.84c-.51-3.35-14.7-6.53-15.03-9.73,16.26-30.14,19.94-38.48,30.48-53.25,9.81-13.71,64.59-10.76,64.59-10.76,0,0,36.77-8.39,47.15,9.28,10.39,17.66,14.96,166,14.96,166Z"></path><polygon class="cls-1" points="196.17 232.17 222.41 305.45 187.26 305.45 196.17 232.17"></polygon><polygon class="cls-3" points="190.45 400.69 155.97 401.66 130.64 234.43 172.76 236.36 190.45 400.69"></polygon><g><path class="cls-3" d="M119.5,116.39c-15.5-7.87-34.49-5.44-46.83,7.31-9.01,9.31-12.63,23.89-7.83,35.94,4.9,12.28,18.04,19.53,31,18.47,12.5-1.02,24.18-13.39,29.48-24.02,6.41-12.83,9.6-29.86-5.82-37.7h0Z"></path><g><path class="cls-2" d="M97.26,140.3c-7.97,8.94-10.77,22.2-7.08,33.59,1.01,3.12,2.6,6.26,5.4,7.97,5.32,3.25,12.25,0,16.94-4.08,7.68-6.69,13.14-15.62,17.01-25.03,2.77-6.74,6.32-21.61-3.88-23.81s-22.06,4.24-28.4,11.36h0Z"></path><path class="cls-3" d="M100.43,183.93c-1.82,0-3.6-.43-5.24-1.43-2.53-1.55-4.4-4.29-5.72-8.38-3.78-11.67-.94-25.14,7.23-34.32h0c6.64-7.45,18.77-13.82,29.12-11.59,2.74.59,4.76,2.08,5.99,4.42,2.82,5.35.91,14.34-1.58,20.41-4.39,10.67-10.19,19.19-17.21,25.31-3.49,3.03-8.16,5.59-12.59,5.59ZM97.82,140.8h0c-7.83,8.78-10.55,21.68-6.93,32.86,1.21,3.74,2.87,6.21,5.08,7.56,4.96,3.03,11.54-.08,16.06-4,6.85-5.97,12.5-14.29,16.81-24.75,1.91-4.64,4.4-13.9,1.64-19.14-1.03-1.96-2.66-3.15-4.98-3.65-9.78-2.11-21.33,4-27.69,11.12Z"></path></g><path class="cls-3" d="M157.54,210.45c-2.05,2.1-3.62,4.8-5.96,6.71-8.39,6.9-20.55,8.52-30.79,4.88-24.43-8.71-27.45-35.52-25.62-57.88.74-9.11,4.76-28.4,17.93-20.79-3.86-2.23,9.4-13.1,11.34-14.21,14.39-8.22,31.71-1.63,42.28,9.71,5.57,5.96,12.31,13.82,16.31,20.97,4.7,8.41,2.5,21.11-1.51,29.31-3.1,6.36-8.02,11.79-13.96,15.64-2.77,1.8-6.51,2.63-8.99,4.71-.37.3-.7.62-1.04.97v-.03Z"></path><g><path class="cls-2" d="M167.72,156.89s10.26,24.77,13.7,40.34c2.55,11.86-15.41,14.96-15.41,14.96l5.97,26.78s3.17,13.67-14.08,15.3c-17.25,1.63-26.24-11.58-26.24-11.58l-12.87-48.82s16.58-15.18,10.99-32.5c0,0,10.89,4.92,22.4,3.58,11.51-1.34,15.53-8.06,15.53-8.06Z"></path><path class="cls-3" d="M155.02,255.16c-15.58,0-23.89-11.91-23.97-12.04-.05-.07-.08-.15-.11-.23l-12.87-48.82c-.07-.27.01-.56.22-.74.16-.15,16.15-15.07,10.78-31.71-.09-.28,0-.59.21-.79.22-.2.54-.25.81-.12.11.05,10.85,4.82,22.01,3.52,10.96-1.27,14.94-7.64,14.98-7.7.15-.24.4-.38.7-.36.28.02.53.2.64.46.1.25,10.32,25.01,13.74,40.46.63,2.91.14,5.57-1.44,7.91-3.5,5.18-11.31,7.25-13.81,7.8l5.81,26.03c.05.22,1.25,5.61-2.06,10.21-2.47,3.42-6.73,5.44-12.67,6-1.01.1-2,.14-2.96.14ZM132.36,242.37c.87,1.19,9.67,12.65,25.48,11.15,5.48-.52,9.38-2.33,11.59-5.37,2.92-4.04,1.84-8.96,1.83-9.01l-5.97-26.78c-.04-.2,0-.41.11-.58s.29-.29.5-.32c.1-.02,9.86-1.77,13.6-7.32,1.34-1.99,1.75-4.26,1.21-6.75-2.96-13.36-11.06-33.79-13.16-38.98-1.73,2.05-6.28,6.25-15.25,7.29-9.24,1.07-17.96-1.76-21.34-3.05,3.94,15.56-9.04,29.22-11.3,31.45l12.72,48.26Z"></path></g><g><path class="cls-2" d="M127.27,188.33s-12.43-16.74-19.13-2.94c-6.69,13.81,9.75,23.61,17.77,20.67,0,0,1.62,5.25,7.01,6.55"></path><path class="cls-3" d="M132.92,213.36c-.06,0-.12,0-.18-.02-4.57-1.1-6.6-4.78-7.28-6.35-4.82,1.32-11.61-1.12-15.81-5.77-2.43-2.69-5.95-8.37-2.18-16.15,1.75-3.62,4.07-5.59,6.9-5.85,6.54-.61,13.22,8.29,13.51,8.67.25.33.18.8-.16,1.05-.33.25-.8.18-1.05-.15-.06-.09-6.46-8.61-12.16-8.07-2.26.21-4.18,1.9-5.69,5.01-3.39,6.99-.24,12.08,1.94,14.49,3.97,4.39,10.65,6.7,14.89,5.15.19-.07.4-.06.59.03.18.09.32.25.38.45.02.05,1.58,4.86,6.47,6.04.4.1.65.5.55.9-.08.34-.39.57-.73.57Z"></path></g><g><path class="cls-3" d="M165.99,212.19s-13.89,5-22.58,4.71c0,0,13.67,19.09,27.25,15.96l-4.66-20.67h0Z"></path><path class="cls-3" d="M167.62,233.95c-5,0-10.52-2.49-16.16-7.32-5.12-4.39-8.51-9.09-8.65-9.29-.17-.23-.19-.54-.05-.79.13-.25.4-.41.69-.4,8.47.26,22.17-4.62,22.3-4.67.2-.07.43-.05.61.05.19.1.32.28.37.49l4.66,20.67c.09.4-.16.8-.56.9-1.04.24-2.11.36-3.21.36ZM144.93,217.66c3.17,3.97,14.07,16.44,24.82,14.62l-4.31-19.1c-2.91,1-12.98,4.26-20.51,4.48Z"></path></g><ellipse class="cls-3" cx="148.05" cy="178.21" rx="2.15" ry="3.77" transform="translate(-42.65 46.64) rotate(-15.68)"></ellipse><ellipse class="cls-3" cx="168.46" cy="173.77" rx="2.15" ry="3.77" transform="translate(-40.69 52) rotate(-15.68)"></ellipse></g><g><polygon class="cls-2" points="183.35 378.96 206.79 303.13 299.18 282.6 302.55 285.97 273.06 358.43 186.72 382.33 183.35 378.96"></polygon><path class="cls-3" d="M186.72,383.08c-.2,0-.39-.08-.53-.22l-3.37-3.37c-.2-.2-.27-.49-.19-.75l23.44-75.83c.08-.26.29-.45.55-.51l92.4-20.53c.25-.06.51.02.69.2l3.37,3.37c.21.21.28.53.16.81l-29.49,72.46c-.09.22-.27.38-.49.44l-86.34,23.9c-.07.02-.13.03-.2.03ZM184.2,378.75l2.74,2.74,85.56-23.69,29.17-71.66-2.73-2.73-91.57,20.35-23.18,74.98Z"></path></g><g><polygon class="cls-2" points="186.72 382.33 210.16 306.5 302.55 285.97 276.43 361.8 186.72 382.33"></polygon><path class="cls-3" d="M186.72,383.08c-.21,0-.41-.08-.55-.24-.18-.2-.25-.48-.17-.73l23.44-75.83c.08-.26.29-.45.55-.51l92.4-20.53c.27-.06.54.03.72.23.18.2.24.49.15.74l-26.12,75.83c-.08.25-.29.43-.54.49l-89.71,20.53c-.06.01-.11.02-.17.02ZM210.75,307.14l-22.92,74.17,88.04-20.15,25.55-74.17-90.66,20.15Z"></path></g><g><path class="cls-2" d="M67.06,292.83s-32.36,64.22-13.37,84.84c18.99,20.62,119.04-1.19,119.04-1.19,17.28-3.44,35.92-9.51,40.77-29.01.62-2.5.67-5.65-1.49-7.05-1.11-.7-2.5-.72-3.81-.65-4.35.22-8.66,1.12-12.73,2.67.03-2.62.08-5.23.12-7.87-9.58,8.1-20.87,17.01-33.39,19.14-8.25,1.41-16.93,1.54-25.27,2.2-14.55,1.14-31.4-7.39-45.95-6.4,0,0,8.37-19,15.35-38.83"></path><path class="cls-3" d="M90.9,387.31c-19.51,0-32.16-3.05-37.76-9.13-19.12-20.76,11.92-83.05,13.25-85.69.19-.37.64-.52,1.01-.33.37.19.52.64.33,1.01-.32.64-31.92,64-13.49,84,18.49,20.07,117.33-1.2,118.33-1.42,17.24-3.43,35.48-9.49,40.2-28.46.28-1.11,1-4.83-1.17-6.23-.95-.6-2.23-.59-3.36-.54-4.27.21-8.48,1.1-12.51,2.62-.23.09-.49.06-.7-.09-.2-.14-.32-.38-.32-.62.02-1.3.04-2.6.06-3.9.01-.77.02-1.55.04-2.33-9.44,7.91-20.42,16.2-32.49,18.25-5.87,1-12.01,1.37-17.94,1.72-2.44.14-4.96.29-7.4.49-7.46.59-15.56-1.34-23.4-3.21-7.6-1.81-15.46-3.67-22.55-3.19-.25.02-.51-.1-.67-.32-.15-.21-.18-.49-.07-.73.08-.19,8.44-19.2,15.33-38.78.14-.39.57-.6.96-.46.39.14.6.57.46.96-5.95,16.92-13,33.41-14.88,37.77,7-.22,14.5,1.56,21.78,3.29,7.73,1.84,15.73,3.74,22.94,3.17,2.45-.19,4.98-.34,7.42-.49,5.89-.35,11.98-.71,17.78-1.7,12.24-2.08,23.47-10.89,33.03-18.98.22-.19.54-.23.8-.11.27.12.43.39.43.69-.02,1.33-.04,2.65-.06,3.97-.01.94-.03,1.87-.04,2.81,3.86-1.35,7.87-2.14,11.93-2.34,1.45-.08,2.98-.03,4.25.77,2.94,1.89,2.25,6.13,1.82,7.86-4.92,19.78-23.66,26.04-41.35,29.56-.24.05-25.35,5.49-52.47,8.34-11.13,1.17-20.98,1.75-29.51,1.75Z"></path></g></g><g><path class="cls-2" d="M292.21,324.83s-11.88-8.91-12.87-4.95c-.99,3.96-7.43,23.27-3.96,25.75s7.92,1.98,10.89-.99c2.97-2.97,5.94-19.8,5.94-19.8Z"></path><path class="cls-3" d="M280.23,347.96c-1.83,0-3.67-.57-5.29-1.72-2.76-1.97-.87-10.83,2.82-23.52.38-1.32.69-2.38.85-3.02.18-.71.62-1.2,1.27-1.44,3.11-1.1,11.19,4.78,12.78,5.97.23.17.34.45.29.73-.31,1.75-3.1,17.15-6.15,20.2-1.85,1.85-4.2,2.79-6.57,2.79ZM280.85,319.61c-.18,0-.33.02-.47.07-.15.05-.26.14-.32.39-.16.66-.48,1.73-.87,3.08-1.45,4.98-5.85,20.12-3.39,21.88,3.1,2.21,7.18,1.84,9.93-.91,2.23-2.23,4.75-14.02,5.65-18.95-3.41-2.5-8.45-5.55-10.54-5.55Z"></path></g><path class="cls-3" d="M201.12,297.78c-.08,0-.16-.01-.24-.04-.39-.13-.61-.56-.47-.95.04-.13,4.38-13.23,3.44-17.93-.96-4.79-8.27-18.97-8.35-19.11-.19-.37-.05-.82.32-1.01.37-.19.82-.05,1.01.32.31.59,7.49,14.51,8.49,19.51,1.02,5.09-3.3,18.15-3.49,18.7-.11.31-.4.51-.71.51Z"></path><path class="cls-3" d="M164.49,192.76c-.28,0-.54-.15-.67-.41-.19-.37-.04-.82.33-1.01,1.26-.63,3.74-2.34,3.34-3.55-.5-1.5-5.47-6.96-8.49-10.05-.29-.3-.28-.77.01-1.06.3-.29.77-.28,1.06.01.82.84,8.07,8.3,8.84,10.62.92,2.76-3.57,5.11-4.09,5.36-.11.05-.22.08-.33.08Z"></path><g><path class="cls-2" d="M153.19,197.03s3.85,7.02,13.9,3.14"></path><path class="cls-3" d="M161.44,202.09c-6.25,0-8.88-4.63-8.91-4.69-.2-.36-.07-.82.3-1.02.36-.2.82-.07,1.02.3.15.27,3.7,6.39,12.97,2.81.39-.15.82.04.97.43.15.39-.04.82-.43.97-2.25.87-4.22,1.21-5.92,1.21Z"></path></g></g></svg>